<svg width="56" height="56" viewBox="0 0 56 56" fill="none" xmlns="http://www.w3.org/2000/svg">
<path d="M35.4667 54.1333H33.6C33.6 54.48 33.6965 54.8198 33.8788 55.1147C34.061 55.4096 34.3218 55.6479 34.6319 55.8029C34.9419 55.958 35.289 56.0236 35.6343 55.9925C35.9796 55.9613 36.3093 55.8347 36.5867 55.6267L35.4667 54.1333ZM42.9333 48.5333L44.0533 47.04C43.7302 46.7977 43.3372 46.6667 42.9333 46.6667C42.5294 46.6667 42.1364 46.7977 41.8133 47.04L42.9333 48.5333ZM50.4 54.1333L49.28 55.6267C49.5573 55.8347 49.8871 55.9613 50.2324 55.9925C50.5776 56.0236 50.9247 55.958 51.2348 55.8029C51.5449 55.6479 51.8056 55.4096 51.9879 55.1147C52.1701 54.8198 52.2667 54.48 52.2667 54.1333H50.4ZM42.9333 41.0667C40.458 41.0667 38.084 40.0833 36.3337 38.333C34.5833 36.5827 33.6 34.2087 33.6 31.7333H29.8667C29.8667 35.1988 31.2433 38.5224 33.6938 40.9729C36.1443 43.4233 39.4678 44.8 42.9333 44.8V41.0667ZM52.2667 31.7333C52.2667 34.2087 51.2833 36.5827 49.533 38.333C47.7826 40.0833 45.4087 41.0667 42.9333 41.0667V44.8C46.3988 44.8 49.7224 43.4233 52.1729 40.9729C54.6233 38.5224 56 35.1988 56 31.7333H52.2667ZM42.9333 22.4C45.4087 22.4 47.7826 23.3833 49.533 25.1337C51.2833 26.884 52.2667 29.258 52.2667 31.7333H56C56 28.2678 54.6233 24.9443 52.1729 22.4938C49.7224 20.0433 46.3988 18.6667 42.9333 18.6667V22.4ZM42.9333 18.6667C39.4678 18.6667 36.1443 20.0433 33.6938 22.4938C31.2433 24.9443 29.8667 28.2678 29.8667 31.7333H33.6C33.6 29.258 34.5833 26.884 36.3337 25.1337C38.084 23.3833 40.458 22.4 42.9333 22.4V18.6667ZM33.6 39.2V54.1333H37.3333V39.2H33.6ZM36.5867 55.6267L44.0533 50.0267L41.8133 47.04L34.3467 52.64L36.5867 55.6267ZM41.8133 50.0267L49.28 55.6267L51.52 52.64L44.0533 47.04L41.8133 50.0267ZM52.2667 54.1333V39.2H48.5333V54.1333H52.2667ZM56 18.6667V5.6H52.2667V18.6667H56ZM50.4 0H5.6V3.73333H50.4V0ZM0 5.6V50.4H3.73333V5.6H0ZM5.6 56H29.8667V52.2667H5.6V56ZM0 50.4C0 51.8852 0.589998 53.3096 1.6402 54.3598C2.69041 55.41 4.11479 56 5.6 56V52.2667C5.10493 52.2667 4.63013 52.07 4.28007 51.7199C3.93 51.3699 3.73333 50.8951 3.73333 50.4H0ZM5.6 0C4.11479 0 2.69041 0.589998 1.6402 1.6402C0.589998 2.69041 0 4.11479 0 5.6H3.73333C3.73333 5.10493 3.93 4.63014 4.28007 4.28007C4.63013 3.93 5.10493 3.73333 5.6 3.73333V0ZM56 5.6C56 4.11479 55.41 2.69041 54.3598 1.6402C53.3096 0.589998 51.8852 0 50.4 0V3.73333C50.8951 3.73333 51.3699 3.93 51.7199 4.28007C52.07 4.63014 52.2667 5.10493 52.2667 5.6H56ZM11.2 18.6667H29.8667V14.9333H11.2V18.6667ZM11.2 29.8667H22.4V26.1333H11.2V29.8667Z" fill="black"/>
</svg>
