<svg width="56" height="56" viewBox="0 0 56 56" fill="none" xmlns="http://www.w3.org/2000/svg">
<path d="M35.4667 54.1338H33.6C33.6 54.4805 33.6965 54.8203 33.8788 55.1152C34.061 55.4101 34.3218 55.6484 34.6319 55.8034C34.9419 55.9584 35.289 56.0241 35.6343 55.9929C35.9796 55.9618 36.3093 55.8351 36.5867 55.6272L35.4667 54.1338ZM42.9333 48.5338L44.0533 47.0405C43.7302 46.7982 43.3372 46.6672 42.9333 46.6672C42.5294 46.6672 42.1364 46.7982 41.8133 47.0405L42.9333 48.5338ZM50.4 54.1338L49.28 55.6272C49.5573 55.8351 49.8871 55.9618 50.2324 55.9929C50.5776 56.0241 50.9247 55.9584 51.2348 55.8034C51.5449 55.6484 51.8056 55.4101 51.9879 55.1152C52.1701 54.8203 52.2667 54.4805 52.2667 54.1338H50.4ZM42.9333 41.0672C40.458 41.0672 38.084 40.0838 36.3337 38.3335C34.5833 36.5831 33.6 34.2092 33.6 31.7338H29.8667C29.8667 35.1993 31.2433 38.5229 33.6938 40.9733C36.1443 43.4238 39.4678 44.8005 42.9333 44.8005V41.0672ZM52.2667 31.7338C52.2667 34.2092 51.2833 36.5831 49.533 38.3335C47.7826 40.0838 45.4087 41.0672 42.9333 41.0672V44.8005C46.3988 44.8005 49.7224 43.4238 52.1729 40.9733C54.6233 38.5229 56 35.1993 56 31.7338H52.2667ZM42.9333 22.4005C45.4087 22.4005 47.7826 23.3838 49.533 25.1342C51.2833 26.8845 52.2667 29.2585 52.2667 31.7338H56C56 28.2683 54.6233 24.9448 52.1729 22.4943C49.7224 20.0438 46.3988 18.6672 42.9333 18.6672V22.4005ZM42.9333 18.6672C39.4678 18.6672 36.1443 20.0438 33.6938 22.4943C31.2433 24.9448 29.8667 28.2683 29.8667 31.7338H33.6C33.6 29.2585 34.5833 26.8845 36.3337 25.1342C38.084 23.3838 40.458 22.4005 42.9333 22.4005V18.6672ZM33.6 39.2005V54.1338H37.3333V39.2005H33.6ZM36.5867 55.6272L44.0533 50.0271L41.8133 47.0405L34.3467 52.6405L36.5867 55.6272ZM41.8133 50.0271L49.28 55.6272L51.52 52.6405L44.0533 47.0405L41.8133 50.0271ZM52.2667 54.1338V39.2005H48.5333V54.1338H52.2667ZM56 18.6672V5.60049H52.2667V18.6672H56ZM50.4 0.000488281H5.6V3.73382H50.4V0.000488281ZM0 5.60049V50.4005H3.73333V5.60049H0ZM5.6 56.0005H29.8667V52.2672H5.6V56.0005ZM0 50.4005C0 51.8857 0.589998 53.3101 1.6402 54.3603C2.69041 55.4105 4.11479 56.0005 5.6 56.0005V52.2672C5.10493 52.2672 4.63013 52.0705 4.28007 51.7204C3.93 51.3703 3.73333 50.8956 3.73333 50.4005H0ZM5.6 0.000488281C4.11479 0.000488281 2.69041 0.590487 1.6402 1.64069C0.589998 2.69089 0 4.11528 0 5.60049H3.73333C3.73333 5.10542 3.93 4.63062 4.28007 4.28056C4.63013 3.93049 5.10493 3.73382 5.6 3.73382V0.000488281ZM56 5.60049C56 4.11528 55.41 2.69089 54.3598 1.64069C53.3096 0.590487 51.8852 0.000488281 50.4 0.000488281V3.73382C50.8951 3.73382 51.3699 3.93049 51.7199 4.28056C52.07 4.63062 52.2667 5.10542 52.2667 5.60049H56ZM11.2 18.6672H29.8667V14.9338H11.2V18.6672ZM11.2 29.8672H22.4V26.1338H11.2V29.8672Z" fill="white"/>
</svg>
