<svg width="66" height="50" viewBox="0 0 66 50" fill="none" xmlns="http://www.w3.org/2000/svg">
<path d="M59.8125 4.125C60.3595 4.125 60.8841 4.3423 61.2709 4.72909C61.6577 5.11589 61.875 5.64049 61.875 6.1875V43.3125C61.875 43.8595 61.6577 44.3841 61.2709 44.7709C60.8841 45.1577 60.3595 45.375 59.8125 45.375H6.1875C5.64049 45.375 5.11589 45.1577 4.72909 44.7709C4.3423 44.3841 4.125 43.8595 4.125 43.3125V6.1875C4.125 5.64049 4.3423 5.11589 4.72909 4.72909C5.11589 4.3423 5.64049 4.125 6.1875 4.125H59.8125ZM6.1875 0C4.54647 0 2.97266 0.651896 1.81228 1.81228C0.651895 2.97266 0 4.54647 0 6.1875L0 43.3125C0 44.9535 0.651895 46.5273 1.81228 47.6877C2.97266 48.8481 4.54647 49.5 6.1875 49.5H59.8125C61.4535 49.5 63.0273 48.8481 64.1877 47.6877C65.3481 46.5273 66 44.9535 66 43.3125V6.1875C66 4.54647 65.3481 2.97266 64.1877 1.81228C63.0273 0.651896 61.4535 0 59.8125 0H6.1875Z" fill="black"/>
<path d="M12.375 14.4375C12.375 13.8905 12.5923 13.3659 12.9791 12.9791C13.3659 12.5923 13.8905 12.375 14.4375 12.375H51.5625C52.1095 12.375 52.6341 12.5923 53.0209 12.9791C53.4077 13.3659 53.625 13.8905 53.625 14.4375C53.625 14.9845 53.4077 15.5091 53.0209 15.8959C52.6341 16.2827 52.1095 16.5 51.5625 16.5H14.4375C13.8905 16.5 13.3659 16.2827 12.9791 15.8959C12.5923 15.5091 12.375 14.9845 12.375 14.4375ZM12.375 24.75C12.375 24.203 12.5923 23.6784 12.9791 23.2916C13.3659 22.9048 13.8905 22.6875 14.4375 22.6875H51.5625C52.1095 22.6875 52.6341 22.9048 53.0209 23.2916C53.4077 23.6784 53.625 24.203 53.625 24.75C53.625 25.297 53.4077 25.8216 53.0209 26.2084C52.6341 26.5952 52.1095 26.8125 51.5625 26.8125H14.4375C13.8905 26.8125 13.3659 26.5952 12.9791 26.2084C12.5923 25.8216 12.375 25.297 12.375 24.75ZM12.375 35.0625C12.375 34.5155 12.5923 33.9909 12.9791 33.6041C13.3659 33.2173 13.8905 33 14.4375 33H39.1875C39.7345 33 40.2591 33.2173 40.6459 33.6041C41.0327 33.9909 41.25 34.5155 41.25 35.0625C41.25 35.6095 41.0327 36.1341 40.6459 36.5209C40.2591 36.9077 39.7345 37.125 39.1875 37.125H14.4375C13.8905 37.125 13.3659 36.9077 12.9791 36.5209C12.5923 36.1341 12.375 35.6095 12.375 35.0625Z" fill="black"/>
</svg>
