<svg width="66" height="50" viewBox="0 0 66 50" fill="none" xmlns="http://www.w3.org/2000/svg">
<path d="M59.8125 4.12549C60.3595 4.12549 60.8841 4.34279 61.2709 4.72958C61.6577 5.11637 61.875 5.64098 61.875 6.18799V43.313C61.875 43.86 61.6577 44.3846 61.2709 44.7714C60.8841 45.1582 60.3595 45.3755 59.8125 45.3755H6.1875C5.64049 45.3755 5.11589 45.1582 4.72909 44.7714C4.3423 44.3846 4.125 43.86 4.125 43.313V6.18799C4.125 5.64098 4.3423 5.11637 4.72909 4.72958C5.11589 4.34279 5.64049 4.12549 6.1875 4.12549H59.8125ZM6.1875 0.000488281C4.54647 0.000488281 2.97266 0.652384 1.81228 1.81277C0.651895 2.97315 0 4.54696 0 6.18799L0 43.313C0 44.954 0.651895 46.5278 1.81228 47.6882C2.97266 48.8486 4.54647 49.5005 6.1875 49.5005H59.8125C61.4535 49.5005 63.0273 48.8486 64.1877 47.6882C65.3481 46.5278 66 44.954 66 43.313V6.18799C66 4.54696 65.3481 2.97315 64.1877 1.81277C63.0273 0.652384 61.4535 0.000488281 59.8125 0.000488281H6.1875Z" fill="white"/>
<path d="M12.375 14.438C12.375 13.891 12.5923 13.3664 12.9791 12.9796C13.3659 12.5928 13.8905 12.3755 14.4375 12.3755H51.5625C52.1095 12.3755 52.6341 12.5928 53.0209 12.9796C53.4077 13.3664 53.625 13.891 53.625 14.438C53.625 14.985 53.4077 15.5096 53.0209 15.8964C52.6341 16.2832 52.1095 16.5005 51.5625 16.5005H14.4375C13.8905 16.5005 13.3659 16.2832 12.9791 15.8964C12.5923 15.5096 12.375 14.985 12.375 14.438ZM12.375 24.7505C12.375 24.2035 12.5923 23.6789 12.9791 23.2921C13.3659 22.9053 13.8905 22.688 14.4375 22.688H51.5625C52.1095 22.688 52.6341 22.9053 53.0209 23.2921C53.4077 23.6789 53.625 24.2035 53.625 24.7505C53.625 25.2975 53.4077 25.8221 53.0209 26.2089C52.6341 26.5957 52.1095 26.813 51.5625 26.813H14.4375C13.8905 26.813 13.3659 26.5957 12.9791 26.2089C12.5923 25.8221 12.375 25.2975 12.375 24.7505ZM12.375 35.063C12.375 34.516 12.5923 33.9914 12.9791 33.6046C13.3659 33.2178 13.8905 33.0005 14.4375 33.0005H39.1875C39.7345 33.0005 40.2591 33.2178 40.6459 33.6046C41.0327 33.9914 41.25 34.516 41.25 35.063C41.25 35.61 41.0327 36.1346 40.6459 36.5214C40.2591 36.9082 39.7345 37.1255 39.1875 37.1255H14.4375C13.8905 37.1255 13.3659 36.9082 12.9791 36.5214C12.5923 36.1346 12.375 35.61 12.375 35.063Z" fill="white"/>
</svg>
