<svg width="72" height="54" viewBox="0 0 72 54" fill="none" xmlns="http://www.w3.org/2000/svg">
<path fill-rule="evenodd" clip-rule="evenodd" d="M5.1174 6.97712V46.6196C5.1174 47.2695 5.27254 47.5869 5.37372 47.7386C5.48558 47.9064 5.65305 48.0502 5.89835 48.1729C6.15368 48.3005 6.43997 48.3771 6.68403 48.4178C6.8 48.4371 6.89104 48.4458 6.94307 48.4495C6.95853 48.4506 6.97002 48.4512 6.97714 48.4516H64.6942C65.3442 48.4516 65.6615 48.2964 65.8133 48.1953C65.9811 48.0834 66.1249 47.9159 66.2475 47.6706C66.3752 47.4153 66.4518 47.129 66.4925 46.885C66.5118 46.769 66.5205 46.678 66.5242 46.6259C66.5253 46.6105 66.5259 46.5991 66.5263 46.5919V6.94944C66.5263 6.29949 66.3711 5.98213 66.2699 5.83036C66.1581 5.66256 65.9906 5.51877 65.7453 5.39612C65.49 5.26846 65.2037 5.19187 64.9596 5.1512C64.8437 5.13187 64.7526 5.12319 64.7006 5.11948C64.6852 5.11837 64.6737 5.11774 64.6665 5.1174H6.94943C6.29949 5.1174 5.98213 5.27254 5.83036 5.37372C5.66256 5.48558 5.51877 5.65305 5.39612 5.89836C5.26846 6.15368 5.19187 6.43998 5.1512 6.68403C5.13187 6.8 5.12319 6.89104 5.11948 6.94307C5.11837 6.95852 5.11774 6.97 5.1174 6.97712ZM64.6942 2.5587C64.6942 0 64.6955 0 64.6968 0L64.6994 5.14797e-06L64.7051 2.19466e-05L64.7177 9.72696e-05L64.7481 0.00046684C64.7706 0.000829636 64.7976 0.001452 64.8288 0.00249216C64.8911 0.00457005 64.9707 0.00832996 65.0652 0.0150781C65.2533 0.0285127 65.5053 0.0541415 65.8009 0.103419C66.3801 0.199953 67.1915 0.39779 68.0339 0.818971C68.8863 1.24516 69.8165 1.92463 70.5279 2.99173C71.25 4.07485 71.6437 5.40402 71.6437 6.94944V46.6196H69.085C71.6437 46.6196 71.6437 46.6208 71.6437 46.6221L71.6437 46.6248L71.6436 46.6304L71.6436 46.643L71.6432 46.6734L71.6427 46.6992C71.6423 46.7157 71.6418 46.734 71.6412 46.7541C71.6391 46.8164 71.6353 46.896 71.6286 46.9905C71.6151 47.1786 71.5895 47.4306 71.5402 47.7263C71.4437 48.3055 71.2459 49.1168 70.8247 49.9592C70.3985 50.8116 69.719 51.7418 68.6519 52.4532C67.5688 53.1753 66.2396 53.569 64.6942 53.569H6.94943V51.0136C6.94943 53.569 6.94817 53.569 6.94688 53.569L6.94422 53.569L6.93856 53.569L6.92595 53.5689L6.89558 53.5685C6.87308 53.5682 6.84609 53.5675 6.81488 53.5665C6.75255 53.5644 6.67295 53.5607 6.57847 53.5539C6.39039 53.5405 6.1384 53.5148 5.84274 53.4656C5.26353 53.369 4.45214 53.1712 3.60978 52.75C2.7574 52.3238 1.82719 51.6444 1.11579 50.5773C0.393707 49.4941 0 48.165 0 46.6196V6.94944H2.5587C0 6.94944 0 6.94817 0 6.94688L5.14797e-06 6.94422L2.19466e-05 6.93856L9.72696e-05 6.92595L0.00046684 6.89558C0.000829636 6.87308 0.001452 6.84609 0.00249216 6.81488C0.00457004 6.75255 0.00832996 6.67295 0.0150781 6.57847C0.0285127 6.39039 0.0541415 6.1384 0.103419 5.84273C0.199953 5.26353 0.39779 4.45214 0.818971 3.60978C1.24516 2.7574 1.92463 1.82719 2.99173 1.11579C4.07485 0.393706 5.40402 0 6.94943 0H64.6942V2.5587ZM45.3402 21.053C45.3402 19.6399 46.4858 18.4943 47.8989 18.4943H58.0621C59.4752 18.4943 60.6208 19.6399 60.6208 21.053C60.6208 22.4661 59.4752 23.6117 58.0621 23.6117H47.8989C46.4858 23.6117 45.3402 22.4661 45.3402 21.053ZM45.3402 31.1292C45.3402 29.716 46.4858 28.5705 47.8989 28.5705H58.0621C59.4752 28.5705 60.6208 29.716 60.6208 31.1292C60.6208 32.5423 59.4752 33.6879 58.0621 33.6879H47.8989C46.4858 33.6879 45.3402 32.5423 45.3402 31.1292ZM18.5968 14.984C20.6515 12.9293 23.4383 11.7749 26.3441 11.7749C29.2499 11.7749 32.0367 12.9293 34.0914 14.984C36.1461 17.0387 37.3005 19.8255 37.3005 22.7313C37.3005 25.6371 36.1461 28.4239 34.0914 30.4786C34.0612 30.5088 34.0309 30.5388 34.0004 30.5686C34.3601 30.7667 34.7141 30.9789 35.0617 31.2048L35.0841 31.2193L35.084 31.2195C37.7522 32.9933 39.9223 35.4204 41.3877 38.2697C42.0341 39.5264 41.5393 41.069 40.2826 41.7154C39.0259 42.3617 37.4833 41.8669 36.837 40.6102C35.7729 38.5413 34.1981 36.7784 32.2621 35.4885C30.4256 34.2978 28.3954 33.6894 26.3514 33.688C24.2486 33.7008 22.1949 34.3245 20.44 35.4831C18.5002 36.7734 16.9226 38.5384 15.857 40.6102C15.2107 41.8669 13.668 42.3617 12.4113 41.7154C11.1547 41.069 10.6599 39.5264 11.3062 38.2697C12.7717 35.4204 14.9417 32.9933 17.61 31.2195L17.616 31.2154C17.965 30.9848 18.3221 30.7686 18.6863 30.5671C18.6563 30.5378 18.6265 30.5083 18.5968 30.4786C16.5421 28.4239 15.3878 25.6371 15.3878 22.7313C15.3878 19.8255 16.5421 17.0387 18.5968 14.984ZM26.3441 16.8923C24.7955 16.8923 23.3104 17.5075 22.2153 18.6025C21.1203 19.6975 20.5052 21.1827 20.5052 22.7313C20.5052 24.2799 21.1203 25.765 22.2153 26.8601C23.3104 27.9551 24.7955 28.5702 26.3441 28.5702C27.8927 28.5702 29.3779 27.9551 30.4729 26.8601C31.5679 25.765 32.1831 24.2799 32.1831 22.7313C32.1831 21.1827 31.5679 19.6975 30.4729 18.6025C29.3779 17.5075 27.8927 16.8923 26.3441 16.8923Z" fill="#212121"/>
</svg>
