<svg width="72" height="54" viewBox="0 0 72 54" fill="none" xmlns="http://www.w3.org/2000/svg">
<path fill-rule="evenodd" clip-rule="evenodd" d="M5.1174 7.08723V46.7297C5.1174 47.3796 5.27254 47.697 5.37372 47.8487C5.48558 48.0165 5.65305 48.1603 5.89835 48.283C6.15368 48.4106 6.43997 48.4872 6.68403 48.5279C6.8 48.5472 6.89104 48.5559 6.94307 48.5596C6.95853 48.5607 6.97002 48.5614 6.97714 48.5617H64.6942C65.3442 48.5617 65.6615 48.4066 65.8133 48.3054C65.9811 48.1935 66.1249 48.026 66.2475 47.7807C66.3752 47.5254 66.4518 47.2391 66.4925 46.9951C66.5118 46.8791 66.5205 46.7881 66.5242 46.736C66.5253 46.7206 66.5259 46.7092 66.5263 46.702V7.05954C66.5263 6.40959 66.3711 6.09224 66.2699 5.94046C66.1581 5.77267 65.9906 5.62888 65.7453 5.50622C65.49 5.37856 65.2037 5.30198 64.9596 5.2613C64.8437 5.24198 64.7526 5.2333 64.7006 5.22959C64.6852 5.22848 64.6737 5.22785 64.6665 5.22751H6.94943C6.29949 5.22751 5.98213 5.38265 5.83036 5.48383C5.66256 5.59569 5.51877 5.76316 5.39612 6.00846C5.26846 6.26378 5.19187 6.55008 5.1512 6.79414C5.13187 6.9101 5.12319 7.00114 5.11948 7.05318C5.11837 7.06862 5.11774 7.08011 5.1174 7.08723ZM64.6942 2.66881C64.6942 0.110107 64.6955 0.110107 64.6968 0.110107L64.6994 0.110113L64.7051 0.110129L64.7177 0.110205L64.7481 0.110574C64.7706 0.110937 64.7976 0.111559 64.8288 0.1126C64.8911 0.114677 64.9707 0.118437 65.0652 0.125186C65.2533 0.13862 65.5053 0.164249 65.8009 0.213527C66.3801 0.310061 67.1915 0.507898 68.0339 0.929079C68.8863 1.35527 69.8165 2.03474 70.5279 3.10184C71.25 4.18496 71.6437 5.51413 71.6437 7.05954V46.7297H69.085C71.6437 46.7297 71.6437 46.7309 71.6437 46.7322L71.6437 46.7349L71.6436 46.7405L71.6436 46.7532L71.6432 46.7835L71.6427 46.8093C71.6423 46.8258 71.6418 46.8442 71.6412 46.8642C71.6391 46.9265 71.6353 47.0062 71.6286 47.1006C71.6151 47.2887 71.5895 47.5407 71.5402 47.8364C71.4437 48.4156 71.2459 49.227 70.8247 50.0693C70.3985 50.9217 69.719 51.8519 68.6519 52.5633C67.5688 53.2854 66.2396 53.6791 64.6942 53.6791H6.94943V51.1237C6.94943 53.6791 6.94817 53.6791 6.94688 53.6791L6.94422 53.6791L6.93856 53.6791L6.92595 53.679L6.89558 53.6786C6.87308 53.6783 6.84609 53.6776 6.81488 53.6766C6.75255 53.6745 6.67295 53.6708 6.57847 53.664C6.39039 53.6506 6.1384 53.625 5.84274 53.5757C5.26353 53.4791 4.45214 53.2813 3.60978 52.8601C2.7574 52.4339 1.82719 51.7545 1.11579 50.6874C0.393707 49.6043 0 48.2751 0 46.7297V7.05954H2.5587C0 7.05954 0 7.05827 0 7.05699L5.14797e-06 7.05433L2.19466e-05 7.04867L9.72696e-05 7.03605L0.00046684 7.00568C0.000829636 6.98319 0.001452 6.9562 0.00249216 6.92499C0.00457004 6.86266 0.00832996 6.78305 0.0150781 6.68858C0.0285127 6.5005 0.0541415 6.24851 0.103419 5.95284C0.199953 5.37364 0.39779 4.56225 0.818971 3.71989C1.24516 2.86751 1.92463 1.93729 2.99173 1.22589C4.07485 0.503814 5.40402 0.110107 6.94943 0.110107H64.6942V2.66881ZM45.3402 21.1631C45.3402 19.75 46.4858 18.6044 47.8989 18.6044H58.0621C59.4752 18.6044 60.6208 19.75 60.6208 21.1631C60.6208 22.5762 59.4752 23.7218 58.0621 23.7218H47.8989C46.4858 23.7218 45.3402 22.5762 45.3402 21.1631ZM45.3402 31.2393C45.3402 29.8261 46.4858 28.6806 47.8989 28.6806H58.0621C59.4752 28.6806 60.6208 29.8261 60.6208 31.2393C60.6208 32.6524 59.4752 33.798 58.0621 33.798H47.8989C46.4858 33.798 45.3402 32.6524 45.3402 31.2393ZM18.5968 15.0941C20.6515 13.0394 23.4383 11.885 26.3441 11.885C29.2499 11.885 32.0367 13.0394 34.0914 15.0941C36.1461 17.1488 37.3005 19.9356 37.3005 22.8414C37.3005 25.7472 36.1461 28.534 34.0914 30.5887C34.0612 30.6189 34.0309 30.6489 34.0004 30.6787C34.3601 30.8769 34.7141 31.089 35.0617 31.3149L35.0841 31.3294L35.084 31.3296C37.7522 33.1034 39.9223 35.5305 41.3877 38.3798C42.0341 39.6365 41.5393 41.1791 40.2826 41.8255C39.0259 42.4718 37.4833 41.977 36.837 40.7203C35.7729 38.6514 34.1981 36.8885 32.2621 35.5986C30.4256 34.4079 28.3954 33.7995 26.3514 33.7981C24.2486 33.8109 22.1949 34.4346 20.44 35.5932C18.5002 36.8836 16.9226 38.6485 15.857 40.7203C15.2107 41.977 13.668 42.4718 12.4113 41.8255C11.1547 41.1791 10.6599 39.6365 11.3062 38.3798C12.7717 35.5305 14.9417 33.1034 17.61 31.3296L17.616 31.3255C17.965 31.0949 18.3221 30.8787 18.6863 30.6772C18.6563 30.6479 18.6265 30.6184 18.5968 30.5887C16.5421 28.534 15.3878 25.7472 15.3878 22.8414C15.3878 19.9356 16.5421 17.1488 18.5968 15.0941ZM26.3441 17.0024C24.7955 17.0024 23.3104 17.6176 22.2153 18.7126C21.1203 19.8076 20.5052 21.2928 20.5052 22.8414C20.5052 24.39 21.1203 25.8751 22.2153 26.9702C23.3104 28.0652 24.7955 28.6803 26.3441 28.6803C27.8927 28.6803 29.3779 28.0652 30.4729 26.9702C31.5679 25.8751 32.1831 24.39 32.1831 22.8414C32.1831 21.2928 31.5679 19.8076 30.4729 18.7126C29.3779 17.6176 27.8927 17.0024 26.3441 17.0024Z" fill="white"/>
</svg>
